mtllib 0.mtl
o Default
v -1.1102230246251565e-16 0 0
v 7.771561172376096e-16 4 -4
v -1.1102230246251565e-16 4 0
v 7.771561172376096e-16 0 -4
v 7.771561172376096e-16 4 -8
v 7.771561172376096e-16 0 -8
v 7.771561172376096e-16 4 -12
v 7.771561172376096e-16 0 -12
v 7.771561172376096e-16 4 -16
v 7.771561172376096e-16 0 -16
v 4 0 -11.999150276184082
v 4 0 -7.999149799346924
v 4 0 -3.9995501041412354
v 4 0 0.00004999999873689376
v 4 0 -23.997949600219727
v 8 0 -27.997549057006836
v 4 0 -27.997549057006836
v 8 0 -23.997949600219727
v 8 0 -11.999150276184082
v 8 0 -7.999149799346924
v 8 0 -3.9995501041412354
v 8 0 0.00004999999873689376
v 12 0 -3.9999499320983887
v 12 0 0.00004999999873689376
v 12 0 -7.999549865722656
v 12 0 -11.999150276184082
v 12 0 -15.998749732971191
v 8 0 -15.998749732971191
v 12 0 -19.998350143432617
v 8 0 -19.998350143432617
v 12 0 -23.997949600219727
v 4 0 -15.998749732971191
v 4 0 -19.998350143432617
v 0 0 -19.998350143432617
v 0 0 -23.997949600219727
v 8 0 -35.99755096435547
v 4 0 -35.99755096435547
v 8 0 -47.9963493347168
v 4 0 -47.9963493347168
v 0 0 -27.997549057006836
v 4 0 -31.997150421142578
v 0 0 -31.997150421142578
v 0 0 -35.99674987792969
v 4 0 -39.9963493347168
v 0 0 -39.9963493347168
v 4 0 -43.995948791503906
v 0 0 -43.995948791503906
v 0 0 -47.995548248291016
v 12 0 -35.99755096435547
v 12 0 -43.995548248291016
v 16 0 -47.995948791503906
v 12 0 -47.995548248291016
v 16 0 -43.995548248291016
v 7.771561172376096e-16 4 -20
v 7.771561172376096e-16 4 -24
v 7.771561172376096e-16 4 -28
v 7.771561172376096e-16 4 -32
v 7.771561172376096e-16 4 -36
v 8 4 0
v 12 4.5 0
v 16 1.5 -31.997549057006836
v 12 0 -31.997549057006836
v 16 1.5 -23.997549057006836
v 20 0 -51.9947509765625
v 16 0 -51.9947509765625
v 20 0 -47.995548248291016
v 16 1.5 -15.999150276184082
v 16 1.5 -7.999149799346924
v 16 1.5 0.00004999999873689376
v 16 1.5 -39.99674987792969
v 12 0 -39.99674987792969
v 20 0 -43.995548248291016
v 4 0 -51.9947509765625
v 8 0 -55.9947509765625
v 4 0 -55.9947509765625
v 8 0 -51.9947509765625
v 12 0 -55.9947509765625
v 12 0 -51.9947509765625
v 16 0 -55.9947509765625
v 20 0 -55.9947509765625
v 8 0 -43.995548248291016
v 8 0 -39.9963493347168
v 0 0 -51.99515151977539
v 24 0 -47.995948791503906
v 24 0 -43.995548248291016
v 24 1.5 -39.99589920043945
v 32 0 -43.99589920043945
v 32 1.5 -39.99589920043945
v 16 5.5 -39.995948791503906
v 24 5.5 -39.995948791503906
v 32 5.5 -39.995948791503906
v 16 5.5 -31.99595069885254
v 16 5.5 -23.99595069885254
v 16 5.5 -15.995949745178223
v 16 5.5 -7.995950222015381
v 16 5.5 0.004050000105053186
v 28 0 -43.995548248291016
v 32 0 -47.995548248291016
v 28 0 -47.995948791503906
v 32 0 -51.9947509765625
v 28 0 -51.9947509765625
v 32 0 -55.9947509765625
v 28 0 -55.9947509765625
v 24 0 -51.9947509765625
v 24 0 -55.9947509765625
v 16 5.5 -35.995948791503906
v 17.5 7.5 -31.99595069885254
v 17.5 7.5 -35.995948791503906
v 17.5 7.5 -38.495948791503906
v 17.5 7.5 -23.99595069885254
v 17.5 7.5 -15.995949745178223
v 17.5 7.5 -7.995950222015381
v 17.5 7.5 0.004050000105053186
v 24 7.5 -38.495948791503906
v 32 7.5 -38.495948791503906
v 24 12.5 -43.495948791503906
v 32 12.5 -43.495948791503906
v 14 12.5 -41.495948791503906
v 11 12 -34.495948791503906
v 17.5 7.5 -34.495948791503906
v 11 12.5 -26.49595069885254
v 17.5 7.5 -26.49595069885254
v 11 11.5 -18.49595069885254
v 17.5 7.5 -18.49595069885254
v 11 12.5 -10.495949745178223
v 17.5 7.5 -10.495949745178223
v 11 11.5 0.004050000105053186
v 12 8.5 0
v 8 8 0
v 11.5 10 0
v 8 12 0
vt 0.125 0.9375
vt 0.1875 1
vt 0.125 1
vt 0.1875 0.9375
vt 0.25 1
vt 0.25 0.9375
vt 0.3125 0.9375
vt 0.375 1
vt 0.3125 1
vt 0.375 0.9375
vt 0.125 0.875
vt 0.1875 0.875
vt 0.125 0.8125
vt 0.1875 0.8125
vt 0.125 0.75
vt 0.1875 0.75
vt 0.25 0.8125
vt 0.25 0.75
vt 0.25 0.875
vt 0.3125 0.75
vt 0.375 0.8125
vt 0.3125 0.8125
vt 0.375 0.75
vt 0.375 0.875
vt 0.3125 0.875
vt 0.4375 0.625
vt 0.5 0.6875
vt 0.4375 0.6875
vt 0.5 0.625
vt 0 0.9375
vt 0.0625 1
vt 0 1
vt 0.0625 0.9375
vt 0.4375 1
vt 0.4375 0.875
vt 0.5 0.75
vt 0.5625 0.8125
vt 0.5 0.8125
vt 0.5625 0.75
vt 0.4375 0.8125
vt 0.5 0.875
vt 0.4375 0.75
vt 0.4375 0.9375
vt 0.5625 0.9375
vt 0.5625 0.875
vt 0.5625 1
vt 0.625 0.875
vt 0.6875 0.9375
vt 0.625 0.9375
vt 0.6875 0.875
vt 0.6875 1
vt 0.625 1
vt 0.5 1
vt 0.5 0.9375
vn 1 0 0
vn 0 1 0
vn 0 -0.0000125 -1
vn 0.00000625 0 -1
vn 0.00000139 -0.00001111 -1
vn -0.35112344 0.93632918 0
vn -0.33128365 0.88342307 -0.3313832
vn 0 0.93629449 -0.35121594
vn 0.00003734 0.93631905 -0.35115045
vn -0.0000154 0.93631905 -0.35115045
vn 0 0.93632918 -0.35112344
vn 0 -0.0000124 -1
vn 0.00010633 0.00020027 -0.99999997
vn -1 0 0
vn -0.8 0.6 0
vn 0 0.6 -0.8
vn 0 -0.70710678 -0.70710678
vn -0.14002801 -0.70014004 -0.70014004
vn 0 -0.51449576 -0.85749293
vn -0.66666667 -0.66666667 -0.33333333
vn -0.56920998 -0.82219219 0
vn -0.56845993 -0.82110879 0.05131931
vn -0.60971076 -0.79262399 0
vn -0.60674002 -0.78876202 -0.09859525
vn -0.52409743 -0.85165832 0
vn -0.52115259 -0.84687297 0.10585911
vn -0.60798095 -0.79037524 -0.07527383
vn 0.0007625 0.001 -0.99999921
vn 0.00000417 -0.00001111 -1
vn 0.000648 -0.000486 -0.99999967
vn 0.0010125 0 -0.99999949
vn 0 0 -1
vn 0.00209031 0.00339675 -0.99999205
vn 0.00078387 0.00026129 -0.99999966
vn 0.00166764 0.00190588 -0.99999679
g Scene
usemtl 1
f 1/1/1 2/2/1 3/3/1
f 1/1/1 4/4/1 2/2/1
f 4/4/1 5/5/1 2/2/1
f 4/4/1 6/6/1 5/5/1
f 6/4/1 7/5/1 5/2/1
f 6/4/1 8/6/1 7/5/1
f 8/7/1 9/8/1 7/9/1
f 8/7/1 10/10/1 9/8/1
f 6/11/2 11/4/2 8/1/2
f 6/11/2 12/12/2 11/4/2
f 4/13/2 12/12/2 6/11/2
f 4/13/2 13/14/2 12/12/2
f 1/15/2 13/14/2 4/13/2
f 1/15/2 14/16/2 13/14/2
f 15/16/2 16/17/2 17/14/2
f 15/16/2 18/18/2 16/17/2
f 12/12/2 19/6/2 11/4/2
f 12/12/2 20/19/2 19/6/2
f 13/14/2 20/19/2 12/12/2
f 13/14/2 21/17/2 20/19/2
f 14/16/2 21/17/2 13/14/2
f 14/16/2 22/18/2 21/17/2
f 22/20/2 23/21/2 21/22/2
f 22/20/2 24/23/2 23/21/2
f 21/22/2 25/24/2 20/25/2
f 21/22/2 23/21/2 25/24/2
f 20/25/2 26/10/2 19/7/2
f 20/25/2 25/24/2 26/10/2
f 19/20/2 27/21/2 28/22/2
f 19/20/2 26/23/2 27/21/2
f 28/22/2 29/24/2 30/25/2
f 28/22/2 27/21/2 29/24/2
f 30/25/2 31/10/2 18/7/2
f 30/25/2 29/24/2 31/10/2
f 11/16/2 28/17/2 32/14/2
f 11/16/2 19/18/2 28/17/2
f 32/14/2 30/19/2 33/12/2
f 32/14/2 28/17/2 30/19/2
f 33/12/2 18/6/2 15/4/2
f 33/12/2 30/19/2 18/6/2
f 8/11/2 32/4/2 10/1/2
f 8/11/2 11/12/2 32/4/2
f 10/13/2 33/12/2 34/11/2
f 10/13/2 32/14/2 33/12/2
f 34/15/2 15/14/2 35/13/2
f 34/15/2 33/16/2 15/14/2
f 15/16/2 36/6/2 37/4/2
f 15/16/2 18/18/2 36/6/2
f 37/16/2 38/6/2 39/4/2
f 37/16/2 36/18/2 38/6/2
f 35/13/2 17/12/2 40/11/2
f 35/13/2 15/14/2 17/12/2
f 40/11/2 41/4/2 42/1/2
f 40/11/2 17/12/2 41/4/2
f 42/13/2 37/12/2 43/11/2
f 42/13/2 41/14/2 37/12/2
f 43/15/2 44/14/2 45/13/2
f 43/15/2 37/16/2 44/14/2
f 45/13/2 46/12/2 47/11/2
f 45/13/2 44/14/2 46/12/2
f 47/11/2 39/4/2 48/1/2
f 47/11/2 46/12/2 39/4/2
f 18/20/2 49/10/2 36/7/2
f 18/20/2 31/23/2 49/10/2
f 50/26/2 51/27/2 52/28/2
f 50/26/2 53/29/2 51/27/2
f 10/1/1 54/2/1 9/3/1
f 10/1/1 34/4/1 54/2/1
f 34/4/1 55/5/1 54/2/1
f 34/4/1 35/6/1 55/5/1
f 35/6/1 56/9/1 55/5/1
f 35/6/1 40/7/1 56/9/1
f 40/30/1 57/31/1 56/32/1
f 40/30/1 42/33/1 57/31/1
f 42/33/1 58/3/1 57/31/1
f 42/33/1 43/1/1 58/3/1
f 22/1/3 3/5/3 59/3/3
f 22/1/4 1/6/4 3/5/4
f 24/6/5 59/9/5 60/5/5
f 24/6/3 22/7/3 59/9/3
f 31/24/6 61/34/6 62/8/6
f 31/24/6 63/35/6 61/34/6
f 51/36/2 64/37/2 65/38/2
f 51/36/2 66/39/2 64/37/2
f 25/24/6 67/34/6 27/8/6
f 25/24/6 68/35/6 67/34/6
f 24/24/6 68/34/6 25/8/6
f 24/24/6 69/35/6 68/34/6
f 62/24/6 70/34/6 71/8/6
f 62/24/6 61/35/6 70/34/6
f 53/26/2 66/27/2 51/28/2
f 53/26/2 72/29/2 66/27/2
f 73/21/2 74/35/2 75/24/2
f 73/21/2 76/40/2 74/35/2
f 76/21/2 77/35/2 74/24/2
f 76/21/2 78/40/2 77/35/2
f 78/40/2 79/41/2 77/35/2
f 78/40/2 65/38/2 79/41/2
f 65/40/2 80/41/2 79/35/2
f 65/40/2 64/38/2 80/41/2
f 81/28/2 52/36/2 38/42/2
f 81/28/2 50/27/2 52/36/2
f 36/20/2 71/21/2 82/22/2
f 36/20/2 49/23/2 71/21/2
f 82/22/2 50/24/2 81/25/2
f 82/22/2 71/21/2 50/24/2
f 48/13/2 73/12/2 83/11/2
f 48/13/2 39/14/2 73/12/2
f 39/42/2 76/38/2 73/40/2
f 39/42/2 38/36/2 76/38/2
f 38/23/2 78/40/2 76/21/2
f 38/23/2 52/42/2 78/40/2
f 52/42/2 65/38/2 78/40/2
f 52/42/2 51/36/2 65/38/2
f 27/24/6 63/34/6 31/8/6
f 27/24/6 67/35/6 63/34/6
f 71/24/2 53/43/2 50/10/2
f 71/24/7 70/35/7 53/43/7
f 72/26/2 84/27/2 66/28/2
f 72/26/2 85/29/2 84/27/2
f 70/35/8 85/44/8 53/43/8
f 70/35/9 86/45/9 85/44/9
f 86/35/10 87/44/10 85/43/10
f 86/35/11 88/45/11 87/44/11
f 86/43/12 89/46/12 90/34/12
f 86/43/13 70/44/13 89/46/13
f 88/43/12 90/46/12 91/34/12
f 88/43/12 86/44/12 90/46/12
f 70/43/14 92/46/14 89/34/14
f 70/43/14 61/44/14 92/46/14
f 61/43/14 93/46/14 92/34/14
f 61/43/14 63/44/14 93/46/14
f 63/43/14 94/46/14 93/34/14
f 63/43/14 67/44/14 94/46/14
f 67/43/14 95/46/14 94/34/14
f 67/43/14 68/44/14 95/46/14
f 68/43/14 96/46/14 95/34/14
f 68/43/14 69/44/14 96/46/14
f 97/26/2 98/27/2 99/28/2
f 97/26/2 87/29/2 98/27/2
f 99/36/2 100/37/2 101/38/2
f 99/36/2 98/39/2 100/37/2
f 101/40/2 102/41/2 103/35/2
f 101/40/2 100/38/2 102/41/2
f 104/40/2 103/41/2 105/35/2
f 104/40/2 101/38/2 103/41/2
f 84/42/2 101/38/2 104/40/2
f 84/42/2 99/36/2 101/38/2
f 85/26/2 99/27/2 84/28/2
f 85/26/2 97/29/2 99/27/2
f 66/23/2 104/40/2 64/21/2
f 66/23/2 84/42/2 104/40/2
f 64/21/2 105/35/2 80/24/2
f 64/21/2 104/40/2 105/35/2
f 106/47/15 107/48/15 108/49/15
f 106/47/15 92/50/15 107/48/15
f 89/45/15 108/49/15 109/44/15
f 89/45/15 106/47/15 108/49/15
f 92/45/15 110/48/15 107/44/15
f 92/45/15 93/50/15 110/48/15
f 93/45/15 111/48/15 110/44/15
f 93/45/15 94/50/15 111/48/15
f 94/45/15 112/48/15 111/44/15
f 94/45/15 95/50/15 112/48/15
f 95/45/15 113/48/15 112/44/15
f 95/45/15 96/50/15 113/48/15
f 90/45/16 109/48/16 114/44/16
f 90/45/16 89/50/16 109/48/16
f 91/45/16 114/48/16 115/44/16
f 91/45/16 90/50/16 114/48/16
f 115/44/17 116/51/17 117/46/17
f 115/44/17 114/48/17 116/51/17
f 114/44/18 118/52/18 116/46/18
f 114/44/19 109/49/19 118/52/19
f 109/44/20 119/52/20 118/46/20
f 109/44/21 120/49/21 119/52/21
f 120/44/22 121/51/22 119/46/22
f 120/44/23 122/48/23 121/51/23
f 122/44/24 123/51/24 121/46/24
f 122/44/25 124/48/25 123/51/25
f 124/44/26 125/51/26 123/46/26
f 124/44/23 126/48/23 125/51/23
f 126/44/27 127/51/27 125/46/27
f 126/44/25 113/48/25 127/51/25
f 69/43/28 60/53/28 96/34/28
f 69/43/29 24/54/29 60/53/29
f 96/45/30 128/49/30 113/44/30
f 96/45/31 60/47/31 128/49/31
f 60/49/32 129/46/32 128/44/32
f 60/49/32 59/52/32 129/46/32
f 113/48/33 130/52/33 127/49/33
f 113/48/34 128/51/34 130/52/34
f 128/49/35 131/46/35 127/44/35
f 128/49/32 129/52/32 131/46/32
