mtllib map.mtl
o Default
v -3.552713678800501e-15 1.3322676295501878e-15 52.000850677490234
v 4 -8.881784197001252e-16 48.001251220703125
v -3.552713678800501e-15 1.3322676295501878e-15 48.001251220703125
v 4 -8.881784197001252e-16 52.000850677490234
v 8 -3.1086244689504383e-15 48.001251220703125
v 8 -3.1086244689504383e-15 52.000850677490234
v 12 -5.329070518200751e-15 48.001251220703125
v 12 -5.329070518200751e-15 52.000850677490234
v -3.552713678800501e-15 1.3322676295501878e-15 44.00164794921875
v 4 -8.881784197001252e-16 40.00204849243164
v -3.552713678800501e-15 1.3322676295501878e-15 40.00204849243164
v 4 -8.881784197001252e-16 44.00164794921875
v 8 -3.1086244689504383e-15 40.00204849243164
v 8 -3.1086244689504383e-15 44.00164794921875
v 12 -5.329070518200751e-15 40.00204849243164
v 12 -5.329070518200751e-15 44.00164794921875
v -3.552713678800501e-15 1.3322676295501878e-15 12.000049591064453
v 4 -8.881784197001252e-16 8.000049591064453
v -3.552713678800501e-15 1.3322676295501878e-15 8.000049591064453
v 4 -8.881784197001252e-16 12.000049591064453
v 4 -8.881784197001252e-16 4.000450134277344
v -3.552713678800501e-15 1.3322676295501878e-15 0.00045011768816038966
v 8 -3.1086244689504383e-15 8.004899978637695
v 20 -9.769962616701378e-15 4.0052995681762695
v 8 -3.1086244689504383e-15 4.0052995681762695
v 20 -9.769962616701378e-15 8.004899978637695
v 32 -1.687538997430238e-14 4.0052995681762695
v 32 -1.687538997430238e-14 8.004899978637695
v 20 -9.769962616701378e-15 12.004500389099121
v 32 -1.687538997430238e-14 12.004500389099121
v 12 -5.329070518200751e-15 12.004449844360352
v 16 -7.549516567451064e-15 8.004499435424805
v 16 -7.549516567451064e-15 12.004449844360352
v 12 -5.329070518200751e-15 36
v 8 -3.1086244689504383e-15 36.00124740600586
v 12 -5.329070518200751e-15 32.00164794921875
v 8 -3.1086244689504383e-15 32.00164794921875
v 12 -5.329070518200751e-15 28
v 8 -3.1086244689504383e-15 28.002050399780273
v 4 -8.881784197001252e-16 36.00124740600586
v 4 -8.881784197001252e-16 32.00164794921875
v 4 -8.881784197001252e-16 28.002050399780273
v -3.552713678800501e-15 1.3322676295501878e-15 36.00124740600586
v -3.552713678800501e-15 1.3322676295501878e-15 32.00164794921875
v -3.552713678800501e-15 1.3322676295501878e-15 28.002050399780273
v 8 -3.1086244689504383e-15 12.002449989318848
v 4 -8.881784197001252e-16 24.00244903564453
v -3.552713678800501e-15 1.3322676295501878e-15 24.00244903564453
v 4 -8.881784197001252e-16 20.002849578857422
v -3.552713678800501e-15 1.3322676295501878e-15 20.002849578857422
v 4 -8.881784197001252e-16 16.003250122070312
v -3.552713678800501e-15 1.3322676295501878e-15 16.003250122070312
v 12 -5.329070518200751e-15 16.002450942993164
v 8 -3.1086244689504383e-15 16.002450942993164
v 13.5 6 44.00404739379883
v 17.252464294433594 8.046428680419922 52.664283752441406
v 16.558019638061523 8.972354888916016 39.483726501464844
v 14.5 6.5 52
v 12.5 2 12.5
v 13.5 6 17.00404930114746
v 13.5 6 13.504050254821777
v 12.5 2 16.00404930114746
v 12.5 3.5 52.5
v 8 7 53
v 8 2.5 52.5
v 4 2 52.5
v -3.5 5.5 54
v 2 6.5 53
v -4 2 52.5
v 12.5 2 20.00404930114746
v 13.5 6 30.00404930114746
v 13.5 6 21.00404930114746
v 12.5 2 30.00404930114746
v 13.5 6 36.00404739379883
v 12.5 2 36.00404739379883
v 12.5 2 44.00404739379883
v -4 7 57
v 4 7.5 57
v 16.053882598876953 8.67279052734375 33.703250885009766
v 16.210798263549805 8.972354888916016 29.069873809814453
v 9.5 8 57.5
v 8 4 52
v 12 4 52.00004959106445
v 8 -0.5 52.00004959106445
v 16.748327255249023 8.40824031829834 23.48499870300293
v 16.401105880737305 8.540515899658203 21.600078582763672
v 12 4 12.004050254821777
v 20 4 11.004050254821777
v 28 -1.4654943925052066e-14 12.004050254821777
v 28 4 12.004050254821777
v 12 4 20.00404930114746
v 12 -5.329070518200751e-15 20.00404930114746
v 11.5 4 28.00404930114746
v 12 4 36.00404739379883
v 12.5 4 44.00404739379883
v 20 2 12.504050254821777
v 20 6 14.004050254821777
v 28 2 12.504050254821777
v 28 6 14.004050254821777
v 21.372446060180664 8.871203422546387 21.302459716796875
v 27.313140869140625 8.871203422546387 21.302459716796875
v 18.26949119567871 8.40824031829834 20.9056339263916
v 8 -3.1086244689504383e-15 0.005299551412463188
v 4 4 52
v 4 -0.5 52.000099182128906
v -11.5 4 58.5
v -11.5 2.5 55.5
v -4.440892098500626e-15 -0.5 52.000099182128906
v -4 4 52
v -1.7763568394002505e-15 4 52
v -4 -0.5 52
v -8 4 52
v -7.5 5.773159728050814e-15 52.00004959106445
v -1.7763568394002505e-15 4 44
v 0.5 4 48
v 0.5 4 36
v -1.7763568394002505e-15 4 40
v 0.5 4 28
v -0.5 4 32
v -1.7763568394002505e-15 4 20
v -1.7763568394002505e-15 4 24
v -1.7763568394002505e-15 4 12
v 1 3.5 16
v 0.5 4 4
v -1.7763568394002505e-15 4 8
v -3.552713678800501e-15 1.3322676295501878e-15 4
v 0.5 8.881784197001252e-16 52.00004959106445
v -1.7763568394002505e-15 4 -1.65952016573101e-8
v -3.552713678800501e-15 1.3322676295501878e-15 0.005649549886584282
v 4 4 0.005649549886584282
v -1.7763568394002505e-15 4 0.005649549886584282
v 4 -8.881784197001252e-16 0.005649549886584282
v 8 4 -0.9943504333496094
v 12 -5.329070518200751e-15 0.005649549886584282
v 16 4 0.005649549886584282
v 12 4 0.005649549886584282
v 16 -7.549516567451064e-15 0.005649549886584282
v 20 -9.769962616701378e-15 0.005649549886584282
v 24 4 0.005649549886584282
v 20 4 0.5056495666503906
v 24 -1.2434497875801753e-14 0.005649549886584282
v 28 -1.4654943925052066e-14 0.005649549886584282
v 32 4 0.005649549886584282
v 28 4 -0.49435046315193176
v 32 -1.687538997430238e-14 0.005649549886584282
v 36 4 0.005649549886584282
v 36 -1.9095836023552692e-14 0.005649549886584282
v -10 7.105427357601002e-15 52.5
v 20 -9.769962616701378e-15 3.999650001525879
v 32 -1.687538997430238e-14 -0.00034906138898804784
v 20 -9.769962616701378e-15 -0.00034906138898804784
v 32 -1.687538997430238e-14 3.999650001525879
v 12 -5.329070518200751e-15 4.0052995681762695
v 16 -7.549516567451064e-15 4.0052995681762695
v -20.666667938232422 -1 -19.000667572021484
v -21.438888549804688 21.5 -3.1880722045898438
v -37.33333206176758 -1 2.999333381652832
v -12.5 -1 -19.000667572021484
v -6.375 29 24.999250411987305
v -37.33333206176758 -1 24.99933433532715
v -21.438888549804688 21.5 53.18692398071289
v -37.33333206176758 -1 46.999332427978516
v -12.5 -1 68.99932861328125
v -20.666667938232422 -1 68.99932861328125
v 36.5 -1 -19.000667572021484
v 61.33332824707031 -1 2.999333381652832
v 41.34236145019531 21.5 -3.1880722045898438
v 44.666664123535156 -1 -19.000667572021484
v 28.333332061767578 -1 -19.000667572021484
v 30.87881851196289 21.5 -3.1880722045898438
v 20.16666603088379 -1 -19.000667572021484
v 20.4152774810791 21.5 -3.1880722045898438
v 12 -1 -19.000667572021484
v 9.951736450195312 21.5 -3.1880722045898438
v 3.8333330154418945 -1 -19.000667572021484
v -0.5118064880371094 21.5 -3.1880722045898438
v -4.333333969116211 -1 -19.000667572021484
v -10.975347518920898 21.5 -3.1880722045898438
v 61.33332824707031 -1 24.99933433532715
v 53.196529388427734 21.5 24.999425888061523
v 24.25 29 24.999250411987305
v 18.125 29 24.999250411987305
v 12 29 24.999250411987305
v 5.875 29 24.999250411987305
v -0.25 29 24.999250411987305
v 61.33332824707031 -1 46.999332427978516
v 46.696529388427734 21.5 49.18692398071289
v 30.87881851196289 21.5 53.18692398071289
v 20.4152774810791 21.5 53.18692398071289
v 9.951736450195312 21.5 53.18692398071289
v -0.5118064880371094 21.5 53.18692398071289
v -10.975347518920898 21.5 53.18692398071289
v 44.666664123535156 -1 68.99932861328125
v 36.5 -1 68.99932861328125
v 28.333332061767578 -1 68.99932861328125
v 20.16666603088379 -1 68.99932861328125
v 12 -1 68.99932861328125
v 3.8333330154418945 -1 68.99932861328125
v -4.333333969116211 -1 68.99932861328125
v 32 -4 0
v 32 -4 12
v 0 -4 12
v 0 -4 0
v 36 0 0
v 36 0 12
v 32 12 12
v 36 12 12
v 36 12 0
v 32 12 0
v 12 -4 12
v 32 -4 56
v 12 -4 56
v 12 8 12
v 12 8 56
v 32 8 56
v 32 8 12
v 12 -4 52
v 0 -4 52
v 12.5 -4 52
v 12.5 -4 56
v -4 -4 52
v -4 -4 56
v 12.5 8 52
v -4 8 52
v 12.5 8 56
v -4 8 56
v -4 -4 0
v 0 8 0
v -4 8 0
v 0 8 52
v 36 -4 -4
v 36 -4 0
v -4 -4 -4
v 36 8 0
v 36 8 -4
v -4 8 -4
vt 0.125 0.875
vt 0.1875 0.9375
vt 0.125 0.9375
vt 0.1875 0.875
vt 0.1875 0.75
vt 0.25 0.8125
vt 0.1875 0.8125
vt 0.25 0.75
vt 0.3125 0.75
vt 0.375 0.8125
vt 0.3125 0.8125
vt 0.375 0.75
vt 0.125 0.75
vt 0.125 0.8125
vt 0.25 0.9375
vt 0.25 0.875
vt 0.3125 0.875
vt 0.375 0.9375
vt 0.3125 0.9375
vt 0.375 0.875
vt 0.5625 0.9375
vt 0.6875 1
vt 0.5625 1
vt 0.6875 0.9375
vt 0.5625 0.875
vt 0.625 0.9375
vt 0.625 0.875
vt 0.6875 0.875
vt 0.625 1
vt 0.4375 0.9375
vt 0.5 1
vt 0.4375 1
vt 0.5 0.9375
vt 0.0625 0.9375
vt 0.125 1
vt 0.0625 1
vt 0.71875 0.96875
vt 0.6875 0.96875
vt 0.71875 1
vt 0.71875 0.9375
vt 0.71875 0.90625
vt 0.6875 0.90625
vt 0.71875 0.875
vt 0.90625 1
vt 0.9375 0.96875
vt 0.90625 0.96875
vt 0.9375 1
vt 0.875 1
vt 0.875 0.96875
vt 0.84375 1
vt 0.84375 0.96875
vt 0.8125 1
vt 0.8125 0.96875
vt 0.78125 1
vt 0.78125 0.96875
vt 0.75 1
vt 0.75 0.96875
vt 0.9375 0.9375
vt 0.90625 0.9375
vt 0.875 0.9375
vt 0.84375 0.9375
vt 0.8125 0.9375
vt 0.78125 0.9375
vt 0.75 0.9375
vt 0.9375 0.90625
vt 0.90625 0.90625
vt 0.875 0.90625
vt 0.84375 0.90625
vt 0.8125 0.90625
vt 0.78125 0.90625
vt 0.75 0.90625
vt 0.9375 0.875
vt 0.90625 0.875
vt 0.875 0.875
vt 0.84375 0.875
vt 0.8125 0.875
vt 0.78125 0.875
vt 0.75 0.875
vt 0.3125 1
vt 0.25 1
vn 0 1 0
vn -0.62486303 0.7758243 0.08742338
vn -0.49108207 0.87108562 0.00694592
vn -0.9701425 0.24253563 0
vn -0.15629788 -0.06011457 -0.9858789
vn -0.02453295 0.11039829 -0.9935846
vn -0.1836641 0.02754961 -0.98260293
vn 0 0.3939193 -0.91914503
vn -0.06094276 0.97508422 -0.21329967
vn -0.23957447 0.85182033 -0.46583924
vn -0.73578004 0.67695821 0.01884956
vn -0.72300653 0.69084119 0
vn -0.0713469 0.97847178 -0.19365587
vn -0.08131156 0.97573875 -0.20327891
vn -0.32378296 0.79598861 -0.51143595
vn 0.03953465 0.97255235 -0.22930096
vn 0.0000124 -0.00020027 -0.99999998
vn 0.00020165 -0.00001102 -0.99999998
vn -0.79810061 0.57270287 0.18720804
vn -0.59555836 0.80331204 0
vn -0.52133377 0.84256149 -0.13528203
vn -0.73886797 0.67385022 0
vn -0.12038271 -0.2408738 -0.96306169
vn 0.00000632 -0.0000999 -0.99999999
vn 0.12403473 0 -0.99227788
vn -0.00005459 -0.24263837 -0.97011681
vn -1 0 0
vn -0.99805258 0 -0.06237829
vn -0.99227788 -0.12403473 0
vn -0.99036745 -0.12385859 0.06189798
vn -0.99805258 -0.00006312 0.06237829
vn -0.99227788 0.12403473 0
vn -0.99036868 0.12383323 -0.06192899
vn -0.71163418 0.70208071 0.02568003
vn -0.69699162 0.71707927 0
vn -0.96472124 0.24118031 0.1055698
vn -0.83552006 0.54109134 -0.0955322
vn 0.07183922 0.35021622 -0.93390991
vn 0.0005238 0.24333662 -0.96994176
vn 0 0.35112344 -0.93632918
vn 0 0.93057907 -0.36609097
vn -0.00920224 0.11042685 -0.99384165
vn -0.01308448 0.10467582 -0.99442032
vn -0.0944712 0.93234153 -0.34901927
vn 0.02490644 0.94580323 -0.32378375
vn -0.03872137 0.95729128 -0.2865206
vn -0.65880538 0.75231341 0
vn 0 -0.00001102 -1
vn -0.0000124 -0.00002204 -1
vn -0.40749437 0.78782245 -0.46182695
vn -0.38665445 0.82486282 -0.41243141
vn 0 -0.00002204 -1
vn 0.0000248 0 -1
vn 0 0 -1
vn -0.00001623 -0.00001443 -1
vn 0.98472726 -0.12312941 -0.12309091
vn 1 0 0
vn 0.99227787 0.00006352 0.12403473
vn 0.99227788 -0.12403473 0
vn 0.96307532 0.12048361 0.24076883
vn 0.92710465 -0.26513305 -0.26491779
vn 0.99227788 0.00000154 0.12403473
vn 0.98473174 0.12309299 0.12309147
vn 0.98472277 -0.12312886 -0.12312734
vn 0.96307812 -0.12045985 -0.24076953
vn 0.99227788 0.12403473 0
vn 0.98472428 -0.12315363 -0.12309053
vn 0.97014757 0.00017277 0.2425153
vn 0.96152395 -0.27472113 0
vn 0.98473193 -0.12309149 -0.12309149
vn 0 0 1
vn 0.24253562 0 0.9701425
vn 0.00008489 0.24245572 0.97016247
vn 0.12309149 -0.12309149 0.98473193
vn -0.12309149 0.12309149 0.98473193
vn -0.23570684 0.23562434 0.94282737
vn -0.0000875 0 1
vn -0.12403474 0 0.99227788
vn 0 -0.12403474 0.99227788
vn 0.12403474 0 0.99227788
vn 0 0.12403474 0.99227788
vn -0.31470039 0.41153127 -0.85533951
vn -0.22941573 0.6882472 -0.6882472
vn 0.74083952 -0.36900446 0.56124195
vn 0 -0.57498896 0.81816117
vn 0.69590429 -0.71813454 0
vn 0.75884766 -0.60343447 -0.24498382
vn 0.81676103 -0.57697609 0
vn 0.68479899 -0.70667399 0.1779388
vn 0 -1 0
vn 0.64137136 -0.25398204 -0.72397231
vn -0.61918225 -0.35793413 0.69892525
vn -0.8744917 -0.31624874 0.36776487
vn -0.74755833 -0.66419617 0
vn -0.24601331 -0.94949298 0.1947833
vn 0 -0.96637665 0.25713066
vn -0.82701451 -0.51638488 -0.22224681
vn -0.94039626 -0.34008068 0
vn -0.06147898 -0.96804744 -0.24311417
vn -0.25024807 -0.96584332 -0.06725013
vn 0 -0.96637744 -0.25712767
vn 0 -0.66086105 -0.75050828
vn -0.7242009 -0.4177684 -0.54863706
vn 0 -0.57498431 -0.81816443
vn -0.19683011 -0.59617823 -0.77835045
g Scene
g map
usemtl 1
f 1/1/1 2/2/1 3/3/1
f 1/1/1 4/4/1 2/2/1
f 4/5/1 5/6/1 2/7/1
f 4/5/1 6/8/1 5/6/1
f 6/9/1 7/10/1 5/11/1
f 6/9/1 8/12/1 7/10/1
f 9/13/1 10/7/1 11/14/1
f 9/13/1 12/5/1 10/7/1
f 12/4/1 13/15/1 10/2/1
f 12/4/1 14/16/1 13/15/1
f 14/17/1 15/18/1 13/19/1
f 14/17/1 16/20/1 15/18/1
f 3/14/1 12/4/1 9/1/1
f 3/14/1 2/7/1 12/4/1
f 2/7/1 14/16/1 12/4/1
f 2/7/1 5/6/1 14/16/1
f 5/11/1 16/20/1 14/17/1
f 5/11/1 7/10/1 16/20/1
f 17/13/1 18/7/1 19/14/1
f 17/13/1 20/5/1 18/7/1
f 19/1/1 21/2/1 22/3/1
f 19/1/1 18/4/1 21/2/1
f 23/8/1 24/2/1 25/5/1
f 23/8/1 26/15/1 24/2/1
f 26/8/1 27/2/1 24/5/1
f 26/8/1 28/15/1 27/2/1
f 29/12/1 28/19/1 26/9/1
f 29/12/1 30/18/1 28/19/1
f 31/10/1 32/17/1 23/11/1
f 31/10/1 33/20/1 32/17/1
f 13/9/1 34/10/1 35/11/1
f 13/9/1 15/12/1 34/10/1
f 35/11/1 36/20/1 37/17/1
f 35/11/1 34/10/1 36/20/1
f 37/17/1 38/18/1 39/19/1
f 37/17/1 36/20/1 38/18/1
f 10/5/1 35/6/1 40/7/1
f 10/5/1 13/8/1 35/6/1
f 40/7/1 37/16/1 41/4/1
f 40/7/1 35/6/1 37/16/1
f 41/4/1 39/15/1 42/2/1
f 41/4/1 37/16/1 39/15/1
f 11/1/1 40/2/1 43/3/1
f 11/1/1 10/4/1 40/2/1
f 43/14/1 41/4/1 44/1/1
f 43/14/1 40/7/1 41/4/1
f 44/13/1 42/7/1 45/14/1
f 44/13/1 41/5/1 42/7/1
f 42/5/1 46/15/1 20/2/1
f 42/5/1 39/8/1 46/15/1
f 45/14/1 47/4/1 48/1/1
f 45/14/1 42/7/1 47/4/1
f 48/1/1 49/2/1 50/3/1
f 48/1/1 47/4/1 49/2/1
f 50/14/1 51/4/1 52/1/1
f 50/14/1 49/7/1 51/4/1
f 52/13/1 20/7/1 17/14/1
f 52/13/1 51/5/1 20/7/1
f 39/9/1 53/18/1 54/19/1
f 39/9/1 38/12/1 53/18/1
f 55/21/2 56/22/2 57/23/2
f 55/21/3 58/24/3 56/22/3
f 33/20/1 26/19/1 32/17/1
f 33/20/1 29/18/1 26/19/1
f 18/6/1 25/4/1 21/7/1
f 18/6/1 23/16/1 25/4/1
f 59/25/4 60/26/4 61/21/4
f 59/25/4 62/27/4 60/26/4
f 63/25/5 64/26/5 58/21/5
f 63/25/6 65/27/6 64/26/6
f 66/25/7 67/26/7 68/21/7
f 66/25/8 69/27/8 67/26/8
f 70/25/4 71/24/4 72/21/4
f 70/25/4 73/28/4 71/24/4
f 73/25/4 74/24/4 71/21/4
f 73/25/4 75/28/4 74/24/4
f 75/25/4 55/24/4 74/21/4
f 75/25/4 76/28/4 55/24/4
f 68/25/9 77/26/9 78/21/9
f 68/25/10 67/27/10 77/26/10
f 54/9/1 31/10/1 23/11/1
f 54/9/1 53/12/1 31/10/1
f 71/25/11 79/24/11 80/21/11
f 71/25/12 74/28/12 79/24/12
f 64/26/13 78/23/13 81/21/13
f 64/26/14 68/29/14 78/23/14
f 58/25/15 81/26/15 56/21/15
f 58/25/16 64/27/16 81/26/16
f 8/30/17 82/31/17 83/32/17
f 8/30/18 84/33/18 82/31/18
f 60/21/19 85/22/19 86/23/19
f 60/21/20 72/24/20 85/22/20
f 72/21/21 80/22/21 85/23/21
f 72/21/22 71/24/22 80/22/22
f 29/30/23 87/23/23 88/32/23
f 29/30/24 31/21/24 87/23/24
f 89/30/25 88/23/25 90/32/25
f 89/30/26 29/21/26 88/23/26
f 31/30/27 91/23/27 87/32/27
f 31/30/27 92/21/27 91/23/27
f 92/30/28 93/23/28 91/32/28
f 92/30/29 38/21/29 93/23/29
f 38/30/30 94/23/30 93/32/30
f 38/30/27 34/21/27 94/23/27
f 34/30/31 95/23/31 94/32/31
f 34/30/32 16/21/32 95/23/32
f 16/30/33 83/23/33 95/32/33
f 16/30/27 8/21/27 83/23/27
f 74/21/34 57/22/34 79/23/34
f 74/21/35 55/24/35 57/22/35
f 76/25/36 58/24/36 55/21/36
f 76/25/37 63/28/37 58/24/37
f 96/25/38 61/24/38 97/21/38
f 96/25/39 59/28/39 61/24/39
f 98/25/40 97/24/40 99/21/40
f 98/25/40 96/28/40 97/24/40
f 99/21/41 100/22/41 101/23/41
f 99/21/41 97/24/41 100/22/41
f 65/26/42 68/23/42 64/21/42
f 65/26/43 66/29/43 68/23/43
f 97/21/44 102/29/44 100/23/44
f 97/21/45 61/26/45 102/29/45
f 61/21/46 86/29/46 102/23/46
f 61/21/47 60/26/47 86/29/47
f 62/27/4 72/24/4 60/26/4
f 62/27/4 70/28/4 72/24/4
f 21/5/1 103/14/1 22/13/1
f 21/5/1 25/7/1 103/14/1
f 84/34/48 104/35/48 82/36/48
f 84/34/49 105/3/49 104/35/49
f 84/33/48 104/23/48 82/31/48
f 84/33/49 105/21/49 104/23/49
f 67/25/50 106/26/50 77/21/50
f 67/25/51 107/27/51 106/26/51
f 108/33/52 109/23/52 110/31/52
f 108/33/53 111/21/53 109/23/53
f 111/33/54 112/32/54 109/31/54
f 111/33/55 113/30/55 112/32/55
f 3/33/56 114/32/56 115/31/56
f 3/33/57 9/30/57 114/32/57
f 11/33/58 116/32/58 117/31/58
f 11/33/59 43/30/59 116/32/59
f 44/33/60 118/32/60 119/31/60
f 44/33/59 45/30/59 118/32/59
f 48/33/57 120/32/57 121/31/57
f 48/33/57 50/30/57 120/32/57
f 52/33/61 122/32/61 123/31/61
f 52/33/57 17/30/57 122/32/57
f 19/33/62 124/32/62 125/31/62
f 19/33/59 126/30/59 124/32/59
f 127/21/63 115/31/63 110/23/63
f 127/21/64 3/33/64 115/31/64
f 9/21/57 117/31/57 114/23/57
f 9/21/57 11/33/57 117/31/57
f 43/21/65 119/31/65 116/23/65
f 43/21/66 44/33/66 119/31/66
f 45/21/67 121/31/67 118/23/67
f 45/21/57 48/33/57 121/31/57
f 50/21/68 123/31/68 120/23/68
f 50/21/69 52/33/69 123/31/69
f 17/21/57 125/31/57 122/23/57
f 17/21/57 19/33/57 125/31/57
f 126/21/70 128/31/70 124/23/70
f 126/21/57 22/33/57 128/31/57
f 129/33/71 130/32/71 131/31/71
f 129/33/71 132/30/71 130/32/71
f 132/21/72 133/31/72 130/23/72
f 132/21/73 103/33/73 133/31/73
f 134/21/71 135/31/71 136/23/71
f 134/21/71 137/33/71 135/31/71
f 138/21/74 139/31/74 140/23/74
f 138/21/71 141/33/71 139/31/71
f 142/21/75 143/31/75 144/23/75
f 142/21/71 145/33/71 143/31/71
f 103/33/76 136/32/76 133/31/76
f 103/33/77 134/30/77 136/32/77
f 137/33/78 140/32/78 135/31/78
f 137/33/79 138/30/79 140/32/79
f 141/33/80 144/32/80 139/31/80
f 141/33/81 142/30/81 144/32/81
f 145/33/71 146/32/71 143/31/71
f 145/33/71 147/30/71 146/32/71
f 69/25/82 107/26/82 67/21/82
f 69/25/83 148/27/83 107/26/83
f 105/30/52 110/31/52 104/32/52
f 105/30/52 108/33/52 110/31/52
f 20/4/1 23/15/1 18/2/1
f 20/4/1 46/16/1 23/15/1
f 149/5/1 150/3/1 151/13/1
f 149/5/1 152/2/1 150/3/1
f 25/7/1 134/1/1 103/14/1
f 25/7/1 153/4/1 134/1/1
f 154/4/1 138/3/1 137/1/1
f 154/4/1 24/2/1 138/3/1
f 153/4/1 137/3/1 134/1/1
f 153/4/1 154/2/1 137/3/1
f 155/22/84 156/37/84 157/38/84
f 155/22/85 158/39/85 156/37/85
f 157/38/86 159/40/86 160/24/86
f 157/38/87 156/37/87 159/40/87
f 160/24/88 161/41/88 162/42/88
f 160/24/89 159/40/89 161/41/89
f 162/42/90 163/43/90 164/28/90
f 162/42/91 161/41/91 163/43/91
f 165/44/92 166/45/92 167/46/92
f 165/44/90 168/47/90 166/45/90
f 169/48/85 167/46/85 170/49/85
f 169/48/85 165/44/85 167/46/85
f 171/50/85 170/49/85 172/51/85
f 171/50/85 169/48/85 170/49/85
f 173/52/85 172/51/85 174/53/85
f 173/52/85 171/50/85 172/51/85
f 175/54/85 174/53/85 176/55/85
f 175/54/85 173/52/85 174/53/85
f 177/56/85 176/55/85 178/57/85
f 177/56/85 175/54/85 176/55/85
f 158/39/85 178/57/85 156/37/85
f 158/39/85 177/56/85 178/57/85
f 167/46/93 179/58/93 180/59/93
f 167/46/94 166/45/94 179/58/94
f 170/49/95 180/59/95 181/60/95
f 170/49/90 167/46/90 180/59/90
f 172/51/96 181/60/96 182/61/96
f 172/51/96 170/49/96 181/60/96
f 174/53/96 182/61/96 183/62/96
f 174/53/96 172/51/96 182/61/96
f 176/55/96 183/62/96 184/63/96
f 176/55/96 174/53/96 183/62/96
f 178/57/96 184/63/96 185/64/96
f 178/57/96 176/55/96 184/63/96
f 156/37/96 185/64/96 159/40/96
f 156/37/96 178/57/96 185/64/96
f 180/59/97 186/65/97 187/66/97
f 180/59/98 179/58/98 186/65/98
f 181/60/99 187/66/99 188/67/99
f 181/60/100 180/59/100 187/66/100
f 182/61/101 188/67/101 189/68/101
f 182/61/101 181/60/101 188/67/101
f 183/62/101 189/68/101 190/69/101
f 183/62/101 182/61/101 189/68/101
f 184/63/101 190/69/101 191/70/101
f 184/63/101 183/62/101 190/69/101
f 185/64/101 191/70/101 192/71/101
f 185/64/101 184/63/101 191/70/101
f 159/40/101 192/71/101 161/41/101
f 159/40/101 185/64/101 192/71/101
f 187/66/102 193/72/102 194/73/102
f 187/66/103 186/65/103 193/72/103
f 188/67/104 194/73/104 195/74/104
f 188/67/105 187/66/105 194/73/105
f 189/68/104 195/74/104 196/75/104
f 189/68/104 188/67/104 195/74/104
f 190/69/104 196/75/104 197/76/104
f 190/69/104 189/68/104 196/75/104
f 191/70/104 197/76/104 198/77/104
f 191/70/104 190/69/104 197/76/104
f 192/71/104 198/77/104 199/78/104
f 192/71/104 191/70/104 198/77/104
f 161/41/104 199/78/104 163/43/104
f 161/41/104 192/71/104 199/78/104
g hitbox0
f 30/15/57 200/79/57 150/80/57
f 30/15/57 201/19/57 200/79/57
f 17/19/71 201/80/71 30/15/71
f 17/19/71 202/79/71 201/80/71
f 150/80/54 203/19/54 22/79/54
f 150/80/54 200/15/54 203/19/54
f 22/79/27 202/15/27 17/19/27
f 22/79/27 203/80/27 202/15/27
f 201/15/90 203/79/90 200/80/90
f 201/15/90 202/19/90 203/79/90
g hitbox1
f 30/15/90 204/79/90 205/80/90
f 30/15/90 150/19/90 204/79/90
f 206/19/71 205/80/71 207/15/71
f 206/19/71 30/79/71 205/80/71
f 207/19/57 204/80/57 208/15/57
f 207/19/57 205/79/57 204/80/57
f 208/19/54 150/80/54 209/15/54
f 208/19/54 204/79/54 150/80/54
f 209/19/27 30/80/27 206/15/27
f 209/19/27 150/79/27 30/80/27
g hitbox2
f 210/15/90 211/79/90 212/80/90
f 210/15/90 201/19/90 211/79/90
f 213/19/27 212/80/27 214/15/27
f 213/19/27 210/79/27 212/80/27
f 214/19/71 211/80/71 215/15/71
f 214/19/71 212/79/71 211/80/71
f 215/19/57 201/80/57 216/15/57
f 215/19/57 211/79/57 201/80/57
f 216/19/54 210/80/54 213/15/54
f 216/19/54 201/79/54 210/80/54
g hitbox3
f 202/15/90 217/79/90 218/80/90
f 202/15/90 210/19/90 217/79/90
f 17/15/27 218/79/27 1/80/27
f 17/15/27 202/19/27 218/79/27
f 1/80/71 217/19/71 8/79/71
f 1/80/71 218/15/71 217/19/71
f 8/79/57 210/15/57 31/19/57
f 8/79/57 217/80/57 210/15/57
f 31/19/54 202/80/54 17/15/54
f 31/19/54 210/79/54 202/80/54
g hitbox4
f 219/80/90 220/79/90 221/15/90
f 220/79/90 222/19/90 221/15/90
f 223/15/54 219/80/54 224/19/54
f 219/80/54 221/79/54 224/19/54
f 225/15/57 220/80/57 223/19/57
f 220/80/57 219/79/57 223/19/57
f 226/15/71 222/80/71 225/19/71
f 222/80/71 220/79/71 225/19/71
f 224/15/27 221/80/27 226/19/27
f 221/80/27 222/79/27 226/19/27
g hitbox5
f 203/15/90 221/79/90 227/80/90
f 203/15/90 218/19/90 221/79/90
f 228/19/54 227/80/54 229/15/54
f 228/19/54 203/79/54 227/80/54
f 229/19/27 221/80/27 224/15/27
f 229/19/27 227/79/27 221/80/27
f 224/19/71 218/80/71 230/15/71
f 224/19/71 221/79/71 218/80/71
f 230/19/57 203/80/57 228/15/57
f 230/19/57 218/79/57 203/80/57
g hitbox6
f 227/15/90 231/79/90 232/80/90
f 227/15/90 233/19/90 231/79/90
f 229/19/71 232/80/71 234/15/71
f 229/19/71 227/79/71 232/80/71
f 234/19/57 231/80/57 235/15/57
f 234/19/57 232/79/57 231/80/57
f 235/19/54 233/80/54 236/15/54
f 235/19/54 231/79/54 233/80/54
f 236/19/27 227/80/27 229/15/27
f 236/19/27 233/79/27 227/80/27
